<?xml version="1.0"?><svg xmlns="http://www.w3.org/2000/svg" viewBox="0 0 100 100"><g><path d="M85.991 67.091H14.009A4.01 4.01 0 0 1 10 63.082V19.683a4.01 4.01 0 0 1 4.009-4.009H85.99a4.01 4.01 0 0 1 4.009 4.009v43.399a4.008 4.008 0 0 1-4.008 4.009z" fill="none" stroke="#323232" stroke-width="3" stroke-linecap="round" stroke-linejoin="round" stroke-miterlimit="10"/><path fill="none" stroke="#323232" stroke-width="3" stroke-linecap="round" stroke-linejoin="round" stroke-miterlimit="10" d="M50 67.091v17.235"/><path fill="none" stroke="#323232" stroke-width="3" stroke-linecap="round" stroke-linejoin="round" stroke-miterlimit="10" d="M35.532 84.326h28.936"/></g><g><path d="M59.075 28.9H43.95a6.05 6.05 0 0 0-6.05 6.05v0A6.05 6.05 0 0 0 43.95 41h12.1a6.05 6.05 0 0 1 6.05 6.05v0a6.05 6.05 0 0 1-6.05 6.05H37.9" fill="none" stroke="#f5e169" stroke-width="3" stroke-linecap="round" stroke-linejoin="round" stroke-miterlimit="10"/><path fill="none" stroke="#f5e169" stroke-width="3" stroke-linecap="round" stroke-linejoin="round" stroke-miterlimit="10" d="M46.706 24.5v33"/><path fill="none" stroke="#f5e169" stroke-width="3" stroke-linecap="round" stroke-linejoin="round" stroke-miterlimit="10" d="M53.294 24.5v33"/></g><metadata xmlns:d="https://loading.io/stock/">
<d:name>money</d:name>
<d:tags>money,price,sale,purchase,payment,notebook,macbook,computer,desktop,laptop,website,monitor</d:tags>
<d:license>by</d:license>
<d:slug>epj89o</d:slug>
</metadata></svg>